<svg width="51" height="40" viewBox="0 0 51 40" fill="none" xmlns="http://www.w3.org/2000/svg">
<path d="M9.90263 39.176C7.63063 39.176 5.79063 38.6 4.38263 37.448C3.00663 36.328 1.99863 34.872 1.35863 33.08C0.750625 31.288 0.446625 29.416 0.446625 27.464C0.446625 24.936 0.830625 22.392 1.59863 19.832C2.36663 17.272 3.40663 14.84 4.71863 12.536C6.06263 10.2 7.58263 8.136 9.27863 6.344C10.9746 4.52 12.7506 3.096 14.6066 2.072C16.4946 1.016 18.3506 0.487998 20.1746 0.487998C21.4866 0.487998 22.5426 0.807998 23.3426 1.448C24.1746 2.056 24.5906 3.112 24.5906 4.616C24.5906 5.544 24.4306 6.6 24.1106 7.784C23.7906 8.936 23.3586 10.056 22.8146 11.144C22.2706 12.2 21.6626 13.08 20.9906 13.784C20.3506 14.488 19.6946 14.84 19.0226 14.84C18.7666 14.84 18.4946 14.76 18.2066 14.6C17.9506 14.44 17.7266 14.152 17.5346 13.736C18.0146 13.192 18.5426 12.52 19.1186 11.72C19.7266 10.888 20.3026 10.024 20.8466 9.128C21.3906 8.2 21.8226 7.304 22.1426 6.44C22.4946 5.544 22.6706 4.76 22.6706 4.088C22.6706 3.448 22.4786 2.936 22.0946 2.552C21.7426 2.136 21.1506 1.928 20.3186 1.928C18.9426 1.928 17.5026 2.488 15.9986 3.608C14.5266 4.728 13.0866 6.232 11.6786 8.12C10.3026 9.976 9.05463 12.056 7.93463 14.36C6.81463 16.664 5.91863 19.016 5.24663 21.416C4.60663 23.816 4.28663 26.104 4.28663 28.28C4.28663 29.848 4.51063 31.352 4.95863 32.792C5.40663 34.2 6.12663 35.336 7.11863 36.2C8.14263 37.096 9.45463 37.544 11.0546 37.544C12.7506 37.544 14.4306 37.064 16.0946 36.104C17.7906 35.144 19.3426 33.88 20.7506 32.312C22.1586 30.744 23.2786 29.048 24.1106 27.224L24.7826 27.704C23.7266 29.784 22.4466 31.704 20.9426 33.464C19.4386 35.192 17.7586 36.568 15.9026 37.592C14.0466 38.648 12.0466 39.176 9.90263 39.176ZM35.0633 39.176C33.3993 39.176 31.8793 38.696 30.5033 37.736C29.1593 36.808 28.0873 35.464 27.2873 33.704C26.4873 31.912 26.0873 29.768 26.0873 27.272C26.0873 24.808 26.4713 22.312 27.2393 19.784C28.0073 17.256 29.0473 14.84 30.3593 12.536C31.7033 10.232 33.2233 8.184 34.9193 6.392C36.6153 4.568 38.3913 3.128 40.2473 2.072C42.1353 1.016 43.9913 0.487998 45.8153 0.487998C47.0313 0.487998 48.0073 0.743999 48.7433 1.256C49.4793 1.768 50.0073 2.44 50.3273 3.272C50.6473 4.072 50.8073 4.952 50.8073 5.912C50.8073 7.032 50.6153 8.136 50.2313 9.224C49.8473 10.28 49.3353 11.16 48.6953 11.864C48.0553 12.568 47.3513 12.92 46.5833 12.92C46.3273 12.92 46.0553 12.84 45.7673 12.68C45.5113 12.52 45.2873 12.232 45.0953 11.816C45.5433 11.496 46.0553 10.92 46.6313 10.088C47.2393 9.256 47.7513 8.328 48.1673 7.304C48.6153 6.28 48.8393 5.336 48.8393 4.472C48.8393 3.736 48.6153 3.128 48.1673 2.648C47.7513 2.168 47.0153 1.928 45.9593 1.928C44.5833 1.928 43.1433 2.488 41.6393 3.608C40.1673 4.728 38.7273 6.232 37.3193 8.12C35.9433 9.976 34.6953 12.056 33.5753 14.36C32.4553 16.664 31.5593 19.016 30.8873 21.416C30.2473 23.816 29.9273 26.088 29.9273 28.232C29.9273 31.144 30.5353 33.416 31.7513 35.048C32.9673 36.712 34.5033 37.544 36.3593 37.544C37.6073 37.544 38.7913 37.08 39.9113 36.152C41.0313 35.256 42.0233 34.088 42.8873 32.648C43.7513 31.176 44.4393 29.592 44.9513 27.896C45.4953 26.2 45.8313 24.568 45.9593 23C44.7753 22.744 43.8153 22.584 43.0793 22.52C42.3433 22.424 41.6553 22.376 41.0153 22.376C40.5993 22.376 40.1513 22.392 39.6713 22.424C39.2233 22.424 38.6953 22.424 38.0873 22.424C38.3113 21.496 38.6953 20.856 39.2393 20.504C39.8153 20.12 40.5193 19.928 41.3513 19.928C42.2473 19.928 43.1753 20.088 44.1353 20.408C45.1273 20.696 46.0873 21.016 47.0153 21.368C47.9433 21.72 48.7593 21.992 49.4633 22.184L49.1273 23.72C48.5193 25.32 48.0233 26.728 47.6393 27.944C47.2553 29.128 46.9513 30.184 46.7273 31.112C46.5353 32.008 46.3913 32.808 46.2953 33.512C46.2313 34.216 46.1993 34.856 46.1993 35.432C46.1993 36.072 46.2153 36.696 46.2473 37.304C46.3113 37.912 46.3593 38.536 46.3913 39.176C45.8793 38.952 45.4153 38.68 44.9993 38.36C44.6153 38.072 44.3113 37.704 44.0873 37.256C43.8953 36.808 43.7993 36.296 43.7993 35.72C43.7993 35.368 43.8153 35.016 43.8473 34.664C43.9113 34.312 44.0073 33.928 44.1353 33.512C42.9833 35.112 41.6553 36.456 40.1513 37.544C38.6473 38.632 36.9513 39.176 35.0633 39.176Z" fill="white"/>
</svg>
